<svg width="167" height="72" viewBox="0 0 167 72" fill="none" xmlns="http://www.w3.org/2000/svg">
<path d="M112.531 63.8487C122.003 61.6401 131.723 60.6889 141.44 61.0178C145.28 61.1139 149.041 61.3989 152.86 61.78C153.514 61.845 154.16 61.8792 154.78 62.0993C154.79 62.1139 155.216 62.5529 155.363 62.6435L155.416 62.6749C153.967 62.7227 152.309 62.4703 150.84 62.4681C150.652 62.4672 148.976 62.1517 148.994 62.142C149.042 62.2034 149.092 62.2637 149.141 62.3242C148.938 62.4829 147.191 62.314 146.788 62.3377C144.121 62.4982 141.446 62.3596 138.781 62.5805C137.772 62.664 136.731 62.6408 135.723 62.7626C135.947 62.9268 135.925 62.7732 136.211 62.8548C137.482 62.8508 138.85 62.7299 140.169 62.7154C143.604 62.678 147.039 62.7821 150.465 63.028C150.893 63.0613 153.221 63.1619 153.347 63.3742L153.278 63.4372C152.56 63.6023 151.166 63.3864 150.422 63.372C149.83 63.3671 149.225 63.4273 148.634 63.417C145.508 63.3615 142.399 63.4969 139.279 63.6823C137.98 63.7594 136.68 63.8097 135.381 63.9251C130.794 64.3532 126.226 64.97 121.688 65.7712C121.009 65.8885 117.522 66.7122 117.138 66.6369C117.13 66.5427 117.134 66.5644 117.107 66.4772H117.033C117.012 66.5173 116.927 66.6661 116.893 66.6819C114.824 67.5452 112.529 67.8988 110.35 68.4874C108.54 68.9764 107.087 69.6678 105.343 70.3043C104.618 70.5767 103.881 70.8199 103.137 71.0328C102.42 71.2406 101.725 71.3601 101.063 71.7208C100.378 72.0943 99.6178 72.1562 99.0766 71.5117C97.8337 71.4445 97.0178 71.212 96.6031 69.8995C96.6416 69.8249 96.6833 69.752 96.7282 69.6814C97.3197 68.767 98.0047 68.7017 98.8199 68.2109C100.002 67.4989 100.943 67.3469 102.184 66.9112C105.578 65.7123 109.032 64.6895 112.531 63.8487Z" fill="#FEFEFE"/>
<path d="M116.491 32.1464C117.429 32.1551 117.249 32.5406 117.942 32.74C118.775 32.9794 119.811 32.6049 119.761 34.0285C119.744 34.5064 119.177 34.9113 119.02 35.3551C118.912 35.6629 118.944 35.9707 118.806 36.2703C118.663 36.6232 118.411 36.9692 118.263 37.3136C118.003 38.1794 117.299 39.0456 117.004 39.841C116.589 40.9614 116.17 42.0966 115.634 43.1868C115.522 43.4142 115.322 44.0975 115.183 44.2166L115.04 44.1761L115.009 44.2234L115.161 44.2706L115.203 44.374C114.926 45.7047 114.277 46.9215 113.821 48.1763C113.518 49.0093 113.363 50.1763 113.105 51.023C112.673 52.4399 112.339 53.8445 111.973 55.2772C111.741 56.2659 111.591 57.3128 111.397 58.3105C111.382 58.4296 111.064 59.0789 111.071 59.147C111.149 59.9357 110.927 60.0859 110.616 60.7637C110.477 61.1721 110.321 61.5717 110.147 61.9599C109.595 63.1869 108.385 63.0209 107.296 62.8256C106.564 62.6939 106.351 62.8222 105.608 62.4658C103.958 61.6735 103.82 61.1175 103.144 59.5697C101.969 56.8884 100.979 54.1293 100.182 51.3108C100.123 51.5608 100.029 51.761 99.9427 52.0011C99.6419 52.8385 99.2967 53.7346 99.1301 54.6094C98.9683 55.4604 98.6553 56.2224 98.5051 57.0738C98.4595 57.3326 98.1996 57.6644 98.1345 57.9328C98.1018 58.0982 98.0888 58.3092 98.0876 58.4769C98.081 59.479 97.7336 60.3815 97.4827 61.3348C97.3889 61.6918 97.4007 62.1321 97.322 62.4951C97.1304 63.3754 96.7647 64.2275 96.6031 65.1191C96.5751 65.4511 96.6525 65.772 96.563 66.1017C96.3253 66.9773 95.25 67.0292 94.6945 67.6982C94.4072 68.0435 93.4742 68.1249 93.0493 68.1457C92.1108 68.1912 91.4607 68.1714 90.7433 67.5138C90.6889 67.5318 90.6332 67.5476 90.5781 67.5633C89.603 67.8354 88.5896 66.5596 88.3011 65.7599C87.7675 64.2781 87.6662 63.0333 86.9037 61.5956C86.4197 60.6835 86.15 59.1949 85.792 58.2048C85.609 57.6757 85.5421 56.8338 85.3209 56.3385C84.7105 54.9722 84.3174 53.6227 83.8922 52.1922C83.6847 51.4944 83.2857 50.7644 83.0618 50.0314C82.6828 48.7903 82.4356 47.566 82.1443 46.3055C82.0011 45.7542 81.6205 45.3894 81.4389 44.7248C81.1414 43.5394 80.6835 42.1801 80.3116 41.0124C80.1589 40.533 79.0248 40.0413 79.787 39.3553C80.2076 38.9768 80.6146 38.7174 81.1241 38.4873C81.6652 38.1959 82.3089 38.1531 82.8676 37.9567C83.56 37.7132 84.2145 37.4524 84.9347 37.2799C85.3778 37.1738 85.6769 37.0622 86.1424 37.0865C86.7843 37.1201 87.0804 37.5571 87.6627 37.7318C87.813 37.7755 88.2251 37.7766 88.3926 37.7813C88.4904 37.8445 88.5877 37.9096 88.6828 37.9769C89.6177 38.6473 89.3359 39.2578 89.578 40.2322C89.9432 41.7023 90.1625 43.1525 90.3437 44.6551C90.3959 45.0881 90.6833 45.5734 90.7477 46.0155C90.8584 46.8883 91.0187 47.7482 91.154 48.617C91.2426 49.1697 91.2602 49.8037 91.3817 50.3462C91.6074 51.3523 91.6603 52.2701 92.1854 53.1771C92.2745 53.3309 92.2574 54.2471 92.3372 54.5195C92.63 55.5164 92.9119 56.4824 93.0828 57.5123C93.2206 56.8678 93.3856 56.2292 93.5783 55.5988C93.8382 54.7711 94.0912 54.1002 94.2146 53.2243C94.2726 52.8122 94.5391 52.2762 94.603 51.8302C94.7078 51.5135 94.7048 50.7747 94.824 50.5036C95.4398 49.1021 95.5372 47.7575 95.987 46.319C96.3078 45.2935 96.5251 44.1035 96.8219 43.0654C97.1735 41.8359 97.5809 40.6258 97.7617 39.3463C97.8666 38.1467 97.4015 37.6601 99.0342 37.2506C100.446 36.9119 102.299 36.8408 103.671 37.399C103.914 37.499 104.132 37.9578 104.166 38.2085C104.241 39.3531 104.571 40.4536 104.68 41.5881C104.784 42.9817 105.06 44.3006 105.251 45.6759C105.481 47.3226 105.905 49.0247 106.294 50.6452C106.548 51.7046 106.955 52.7626 107.198 53.8202C107.303 53.0646 107.669 52.1428 107.805 51.412C107.988 50.4287 108.1 49.3616 108.298 48.3719C108.355 48.0897 108.639 47.6249 108.734 47.3421C108.81 47.1432 108.766 46.7171 108.845 46.5394C109.303 45.5084 109.524 44.5782 109.696 43.4724C109.726 43.2863 110.09 42.7808 110.178 42.5167C110.507 41.5309 110.908 40.5726 111.212 39.5756C111.552 38.5725 112.096 37.4193 112.517 36.4479C112.851 35.6773 113.412 34.3405 113.96 33.7024C114.482 33.0947 115.564 32.2354 116.382 32.1464C116.418 32.1461 116.455 32.1462 116.491 32.1464Z" fill="#FEFEFE"/>
<path d="M161.265 65.2405C161.668 65.2519 162.106 65.3117 161.995 65.8072C161.678 65.8303 161.303 65.5787 161.265 65.2405Z" fill="#FEFEFE"/>
<path d="M157.686 64.6447C157.945 64.6311 158.366 64.6503 158.528 64.8763C158.477 65.0287 158.483 64.9876 158.323 65.1034C158.067 65.1913 157.811 65.1895 157.637 64.9527C157.597 64.7661 157.595 64.8414 157.686 64.6447Z" fill="#FEFEFE"/>
<path d="M159.888 64.5862C159.998 64.5432 160.122 64.5955 160.169 64.7054C160.216 64.8147 160.168 64.9419 160.062 64.9932C159.989 65.0275 159.901 65.0185 159.836 64.9707C159.772 64.9228 159.739 64.8437 159.749 64.7638C159.759 64.6836 159.813 64.6155 159.888 64.5862Z" fill="#FEFEFE"/>
<path d="M163.133 63.9926C164.181 63.9798 165.119 64.6758 163.613 64.9347C163.011 64.9517 162.614 64.6377 162.22 64.2197C162.575 64.0998 162.762 64.062 163.133 63.9926Z" fill="#FEFEFE"/>
<path d="M154.838 63.0909C155.334 63.0111 157.403 63.0498 157.686 63.4327L157.669 63.5294C157.523 63.6683 157.36 63.6965 157.164 63.7565C156.803 63.7524 154.472 63.4751 154.235 63.2686L154.26 63.1944C154.435 63.0933 154.629 63.104 154.838 63.0909Z" fill="#FEFEFE"/>
<path d="M155.818 62.5558C157.113 62.4042 159.972 63.0873 161.39 63.3585L161.412 63.4484C160.841 63.4823 159.576 63.1923 158.939 63.1269C158.47 63.0786 156.137 62.964 155.86 62.7941C155.783 62.6486 155.798 62.724 155.818 62.5558Z" fill="#FEFEFE"/>
<path d="M161.673 62.1982C161.859 62.1937 161.91 62.1905 162.066 62.2792C162.152 62.4374 162.137 62.3542 162.102 62.54C161.938 62.5725 161.88 62.5902 161.731 62.513C161.637 62.3507 161.665 62.4112 161.673 62.1982Z" fill="#FEFEFE"/>
<path d="M162.392 60.8536C162.506 60.869 162.499 60.8682 162.586 60.9436C162.61 61.3632 162.034 61.5472 161.694 61.5597C161.612 61.5367 161.614 61.5281 161.539 61.481L161.526 61.3798C161.654 61.1313 162.122 60.9732 162.392 60.8536Z" fill="#FEFEFE"/>
<path d="M153.818 34.7682C156.449 34.5106 159.579 35.2826 160.084 38.3119C160.343 39.8644 160.201 41.7297 159.327 43.0879C158.584 44.2442 157.401 44.2947 156.186 44.5584C154.693 44.8241 154.729 44.0728 155.202 42.9552C155.492 42.2707 156.066 40.358 155.282 39.8207C154.954 39.5962 154.456 39.5252 154.07 39.6026C151.781 40.0626 149.9 41.7317 148.505 43.5443C146.541 46.1888 144.843 50.6105 146.643 53.719C147.265 54.8586 148.639 55.4332 149.907 55.1693C152.058 54.7209 153.571 53.1752 154.767 51.4435C153.893 51.5093 153.018 51.6095 152.148 51.7065C151.544 51.7738 150.813 51.9379 150.215 51.8437C149.868 51.7886 149.556 51.6384 149.355 51.3378C149.225 51.1412 149.153 50.9092 149.121 50.6767C149.071 50.3204 149.132 49.9834 149.134 49.6289C149.138 49.1777 149.031 48.6986 149.121 48.2528C149.16 48.0579 149.239 47.9271 149.407 47.8188C150.311 47.2334 155.749 46.6797 157.044 46.6046C158.404 46.5257 162.206 46.4308 163.379 46.7507C163.555 46.7984 163.457 46.9081 163.537 47.0475C163.676 47.0259 163.739 46.9296 163.859 46.8182C164.444 46.7999 166.218 47.2819 166.739 47.5715C167.533 48.0143 166.314 49.3859 165.763 49.5951C165.16 49.8246 164.603 49.7924 163.995 49.9189C162.851 50.1571 161.718 50.3385 160.564 50.5103C160.385 51.4709 160.363 52.4782 160.16 53.4492C159.657 55.8885 158.847 58.3002 158.242 60.7075C158.085 61.3363 156.102 61.9728 157.079 59.4078C156.84 59.6589 156.665 59.9342 156.45 60.206C155.864 60.9467 155.13 60.3086 155.075 59.5607C154.986 58.3777 155.057 57.0322 155.075 55.8461C154.698 56.1646 154.249 56.4689 153.856 56.7703C152.221 58.0197 150.838 58.7789 148.762 58.9648C146.857 59.1349 144.962 58.5383 143.493 57.3054C141.837 55.8971 140.776 53.9573 140.591 51.774C140.241 47.4667 141.609 43.196 144.391 39.9062C146.812 37.0232 150.045 35.0885 153.818 34.7682Z" fill="#FEFEFE"/>
<path d="M164.752 58.7625C164.831 58.9745 164.827 59.1993 164.841 59.428C164.488 59.7816 164.294 59.8545 163.825 60.0059C163.769 59.9771 163.726 59.947 163.674 59.9115C163.555 59.4193 164.261 58.9007 164.636 58.686C164.683 58.7041 164.709 58.7301 164.752 58.7625Z" fill="#FEFEFE"/>
<path d="M119.15 43.7332C119.976 43.5906 121.431 44.0453 122.179 44.473C122.333 44.5609 122.455 44.7797 122.541 44.9362C122.517 45.4121 122.439 45.827 122.4 46.292C122.285 47.7909 122.144 49.2885 121.98 50.7824C121.874 51.7263 121.719 52.7283 121.63 53.6583C121.547 54.5953 121.48 55.5346 121.427 56.4734C121.369 57.6914 121.664 58.9088 119.991 58.8569C119.542 58.8182 117.687 58.1463 117.263 57.8541C116.875 57.5862 116.599 57.2469 116.547 56.7523C116.36 54.9706 116.634 52.9666 116.723 51.1669C116.8 49.6121 116.898 48.0964 117.056 46.5551C117.098 46.1424 117.382 44.6368 117.585 44.2908C117.826 43.8801 118.682 43.8058 119.15 43.7332Z" fill="#FEFEFE"/>
<path d="M137.698 34.3522C138.524 34.2997 139.348 34.6577 140.154 34.8672C141.606 35.2454 140.727 36.8518 140.611 37.6958C139.991 42.1942 139.213 46.7351 139.174 51.2883C139.169 52.1336 139.17 52.9794 139.178 53.8247C139.187 54.6187 139.319 56.455 139.064 57.1368C138.561 58.4804 135.804 58.2044 135.031 57.2245C134.496 56.547 133.967 55.7278 133.492 54.9759C132.226 52.9993 131.058 50.9596 129.994 48.8644C129.601 48.1056 129.209 47.4259 128.878 46.6361C128.503 50.076 128.244 53.4193 128.246 56.8782C128.247 57.5178 127.8 58.312 127.077 58.405C126.211 58.4324 124.01 57.581 123.98 56.4892C123.912 53.9673 124.01 51.3629 124.181 48.8396C124.262 47.6465 124.289 46.4626 124.382 45.2599L124.69 41.2823C124.779 40.0977 124.863 39.387 124.851 38.168C125.374 37.6591 125.665 37.7842 126.282 37.6194C127.569 37.2761 128.562 37.5908 129.767 38.0601C130.228 38.24 130.328 38.534 130.465 38.9663C131.612 41.7938 132.725 44.65 133.992 47.4253C134.268 48.0282 134.558 48.4628 134.798 49.1117C134.759 46.9537 134.937 44.6378 135.015 42.4718C135.066 40.8989 135.127 39.3575 135.274 37.7858C135.348 36.9839 135.333 35.6807 135.756 34.9953C136.049 34.5225 137.162 34.4349 137.698 34.3522Z" fill="#FEFEFE"/>
<path d="M120.436 37.5115C121.301 37.4291 122.238 37.8332 123.052 38.1118C124.397 38.5722 123.204 40.7215 122.922 41.5206C122.736 42.0489 121.842 42.4221 121.389 42.5729C120.788 42.6219 119.408 42.3226 118.9 41.9906C118.531 41.7508 118.274 41.3715 118.185 40.9382C118.056 40.2808 118.45 38.9986 118.81 38.4514C119.198 37.8627 119.776 37.6328 120.436 37.5115Z" fill="#FEFEFE"/>
<path d="M108.316 0.0124442C108.944 0.000218324 111.044 -0.0656298 111.437 0.29801C112.346 1.14122 113.206 0.691105 114.122 1.34583C114.276 1.45652 114.442 1.8519 114.419 2.06537C114.305 3.11483 113.462 3.94158 112.884 4.77037C109.868 8.85305 106.206 12.302 102.633 15.8647L99.1168 19.4241C99.7139 20.2191 100.405 20.9593 101.052 21.7154C101.796 22.5838 102.516 23.5208 103.309 24.3372C103.843 24.8865 104.468 25.3819 105.008 25.9427C105.355 26.3031 105.347 26.6659 105.608 26.9208C105.853 27.1596 106.245 27.2642 106.564 27.5594C107.217 28.1649 107.801 28.8766 108.45 29.4729C109.005 29.9824 109.567 30.513 110.136 31.0042C110.619 31.4105 111.123 31.7708 111.593 32.1959C111.795 32.3781 112.052 32.6288 111.897 32.9379C111.817 33.0958 111.614 33.176 111.497 33.2797C110.711 33.9798 108.909 32.3623 108.414 32.4949C108.392 33.0046 111.21 34.5138 108.852 34.6086C107.434 34.6652 106.348 33.5088 105.22 32.8187C104.53 32.4043 103.769 32.1026 103.095 31.6607C101.579 30.6672 100.23 29.4422 98.7417 28.4183C98.4133 28.1924 98.0867 27.9708 97.7662 27.7325C96.3502 26.6784 95.0024 25.5342 93.7324 24.3057C93.6905 24.9798 93.6234 25.3393 93.4667 25.9809C93.2963 26.8344 93.3678 28.0328 93.2524 28.931C93.185 29.4562 93.2828 30.1393 93.2212 30.6826C93.1366 31.6123 92.86 32.5776 92.7992 33.5045C92.7427 34.3684 93.3382 35.5179 92.038 35.7958C91.1324 35.9889 90.5908 35.5703 89.7901 35.3349C89.3457 35.2042 88.7783 35.3636 88.319 34.9324C87.5956 34.487 87.3157 33.8668 86.9193 33.1628C86.433 32.2992 86.571 31.564 86.58 30.6062C86.5923 29.2905 86.6926 27.9669 86.7831 26.6532C86.8339 25.9153 86.7306 25.1476 86.7719 24.4069C86.8594 23.2568 87.0631 22.0804 87.1537 20.9262C87.2624 19.5396 87.2528 18.159 87.3769 16.7709C87.3868 16.2446 87.6371 15.6264 87.6359 15.1137C87.633 13.9557 87.6796 12.8517 87.8033 11.6981C87.9095 10.707 87.9621 9.68894 88.0288 8.69183C88.1023 7.59286 88.3167 6.5961 88.0935 5.5034C89.1123 4.32049 90.2216 4.3439 91.5514 4.03509C92.5555 3.80192 92.8574 3.465 94.065 3.84397C94.3486 3.93246 95.5198 3.9315 95.7638 4.36113C96.0496 6.67817 95.2435 9.05928 95.1923 11.4103C95.1677 12.5293 94.482 13.6182 94.7079 14.8506C94.741 15.0308 94.4594 16.7573 94.4065 16.9777C94.912 16.389 95.5285 15.8239 96.0719 15.2576C97.0248 14.2448 97.9681 13.2228 98.9002 12.1906C99.7885 11.1912 100.587 10.1351 101.45 9.11456C102.75 7.57596 103.948 5.95185 105.155 4.3409L106.691 2.32395C107.201 1.65739 107.543 1.31865 107.725 0.486888C107.782 0.222283 108.077 0.112533 108.316 0.0124442Z" fill="#FEFEFE"/>
<path d="M148.014 5.22458C149.534 5.23134 151.348 5.61354 152.447 6.76033C153.359 7.71274 153.326 9.44033 153.313 10.6795C153.296 12.3917 153.108 14.7428 151.822 15.9906C151.577 16.2288 151.283 16.4394 150.958 16.5528C150.602 16.6771 150.265 16.5733 149.911 16.6472C149.347 16.7651 148.848 17.0604 148.25 17.0339C147.975 17.0216 147.685 16.9233 147.5 16.7079C147.349 16.5309 147.288 16.2974 147.317 16.0671C147.369 15.6716 147.626 15.2828 147.766 14.9091C148.07 14.0949 148.286 13.2054 148.358 12.3367C148.41 11.6996 148.41 10.5059 147.967 10.0117C147.868 9.90121 147.759 9.82886 147.607 9.8296C146.994 9.83384 144.46 11.943 143.955 12.4447C141.985 14.4068 140.604 16.8194 139.765 19.4759C139.601 19.9946 139.484 20.5287 139.343 21.0543C139.033 22.219 138.725 23.4562 138.718 24.67C138.713 25.7037 138.829 27.201 139.618 27.9619C140.141 28.4659 140.968 28.6064 141.665 28.578C144.199 28.4746 146.094 26.0806 147.674 24.353C146.72 24.5812 145.649 24.6615 144.683 24.8386C143.511 25.0538 141.867 25.3293 141.873 23.5795C141.874 23.3007 141.925 23.0055 141.877 22.7295C141.736 22.1868 141.443 21.7682 141.795 21.2185C142.119 20.6049 142.618 20.3724 143.259 20.1774C144.333 19.8791 145.506 19.8144 146.61 19.6333C148.15 19.3804 149.692 19.0901 151.253 18.9834C152.163 18.9238 153.153 18.9482 154.07 18.952C155.522 18.9484 156.996 19.1295 158.329 19.6962C158.649 19.8322 158.993 19.921 159.285 20.1257C159.516 20.2754 159.661 20.5063 159.713 20.7755C159.764 21.0397 159.659 21.7743 159.379 21.8683C158.907 22.0264 158.333 22.0548 157.847 22.1786C157.343 22.3075 156.846 22.5267 156.331 22.6261C156.153 22.6601 155.895 22.5493 155.704 22.5699C155.307 22.9112 153.827 23.2181 153.233 23.3681C153.057 26.4744 151.553 30.6879 150.143 33.4843C149.832 34.1018 149.623 34.5343 148.956 34.748C148.306 34.6596 148.402 34.573 147.927 34.3028C147.801 34.2314 147.243 34.4858 147 34.0105C146.734 33.5423 146.809 33.0178 146.878 32.4927C147.029 31.3165 147.317 30.1313 147.536 28.9602C145.748 30.6742 143.707 31.7813 141.241 32.1442C137.093 32.7546 133.808 29.9035 133.437 25.7178C132.88 19.4345 135.769 12.7234 140.312 8.45798C142.316 6.57617 144.386 5.53659 147.125 5.2583C147.421 5.2406 147.717 5.2233 148.014 5.22458Z" fill="#FEFEFE"/>
<path d="M131.776 6.83229C132.346 6.77689 133.806 7.41221 134.408 7.59454C135.429 7.90483 134.531 9.4621 134.385 10.1444C133.534 14.1311 132.495 18.1282 132.128 22.1989C131.893 24.8682 131.965 27.7968 131.577 30.4668C131.515 30.8882 130.701 30.9185 130.369 30.9052C129.806 30.8826 129.22 30.9279 128.68 30.6961C127.505 30.313 127.132 29.4221 126.525 28.4386C124.624 25.7834 123.334 22.7872 121.931 19.8514C121.663 22.3673 121.048 24.7689 121.003 27.3098C120.983 28.4042 121.204 30.1685 120.19 30.858C119.897 30.8721 119.605 30.8983 119.331 30.7906C118.18 30.2127 116.835 30.2053 116.783 28.6117C116.722 26.7105 116.93 24.8543 116.991 22.9566C117.006 22.4848 117.201 21.9369 117.225 21.4568C117.319 18.2929 117.806 15.1013 118.431 12.0017C118.554 10.995 118.092 10.8987 119.107 10.4075C119.971 9.98976 123.73 10.1718 123.954 11.2934C124.704 15.0488 126.578 18.469 127.673 22.0977C127.71 20.8887 127.788 19.6811 127.907 18.4775C128.028 17.2741 129.163 8.13183 129.59 7.56756C130 7.02812 131.147 6.93213 131.776 6.83229Z" fill="#FEFEFE"/>
<path d="M111.834 15.3723C112.944 15.2473 114.547 15.5415 115.31 16.4268C115.543 17.4078 114.835 23.0864 114.73 24.362L114.426 28.0563C114.383 28.6245 114.384 29.2302 114.301 29.7877C114.219 30.3421 113.462 30.3335 113.055 30.2531C112.377 30.0125 110.856 29.3967 110.334 28.9782C109.831 28.5745 109.581 28.1133 109.508 27.4694C109.344 26.0077 109.589 24.4957 109.667 23.0353C109.719 22.0585 109.926 16.084 110.218 15.741C110.553 15.3504 111.361 15.4016 111.834 15.3723Z" fill="#FEFEFE"/>
<path d="M113.1 8.81326C113.789 8.77289 114.454 9.02102 115.098 9.21574C115.502 9.33796 116.167 9.4852 116.324 9.9038C116.617 10.6919 116.099 11.9391 115.875 12.692C115.697 13.29 114.911 13.8427 114.386 14.0569C112.936 14.0524 111.328 13.4427 111.002 11.8668C111.197 11.1004 111.452 11.2602 111.334 10.2366C111.531 9.8694 111.697 9.56537 111.919 9.21125C112.354 8.97744 112.615 8.9169 113.1 8.81326Z" fill="#FEFEFE"/>
<path d="M66.1199 14.6711C67.9913 14.5697 69.7162 14.929 71.3726 15.8246C73.3661 16.9247 74.8475 18.7735 75.4912 20.9693C76.5172 24.4047 75.6075 28.2758 73.5045 31.0518C72.9544 31.778 72.197 32.5399 71.7945 33.3273C71.5506 33.8043 71.9338 35.1506 71.9173 35.7085C71.9991 37.1581 71.7792 38.8056 71.1984 40.1427C70.7883 41.0961 70.2209 41.9729 69.5197 42.7352C68.9297 43.3645 68.1968 43.9634 67.7919 44.7162C67.937 45.1307 68.0311 45.3659 68.0643 45.7955C68.2554 47.8345 66.5423 48.6716 65.3698 49.8294C64.3845 50.8028 64.0059 51.8116 62.4834 52.3275C61.7218 52.5856 61.3986 52.6182 60.5904 52.6783C60.1572 53.9391 59.5207 55.0468 58.8961 56.2175C58.685 56.6132 58.2603 57.2255 58.0947 57.5981C57.8595 58.1267 57.7986 58.8133 57.5812 59.4487C56.8278 61.6493 55.5628 63.4735 53.7863 64.9644C50.5008 67.7217 45.4725 68.8925 41.3298 67.7863C40.635 67.6006 39.8926 67.2737 39.2381 66.9723C38.8691 66.8022 38.3074 66.3985 37.93 66.3292C37.348 66.2232 36.6865 66.2858 36.0638 66.2371C34.5554 66.1192 33.3516 65.5229 32.3715 64.3483C29.5387 65.1928 27.2448 65.2362 24.757 63.3274C22.5648 64.3447 19.8921 64.8432 17.5309 64.1054C17.0158 63.9443 16.0311 63.4692 15.6937 63.0351C14.8984 63.4697 14.2615 63.5922 13.3676 63.4399C10.5376 62.9588 8.95603 61.3942 7.34702 59.2418C7.11386 59.263 6.69358 59.282 6.46078 59.2418C4.92588 58.9773 2.97421 57.1895 2.02737 55.9927C1.40208 55.2022 0.726725 53.7543 0.7661 52.748C0.781696 52.3518 0.881219 51.6996 0.942454 51.2775C-0.437964 48.6194 -0.422194 45.3796 1.79744 43.1355C2.69905 42.2239 4.10538 41.9532 5.32452 41.8313C5.71482 40.3289 6.35981 39.0422 7.72205 38.2044C9.30293 37.2324 11.3331 36.9896 13.1444 36.8373C13.6979 36.7907 14.5477 36.8361 15.0463 36.7226C15.7792 36.5554 16.6736 36.1279 17.3948 35.8749C19.432 35.1604 21.2927 34.6462 23.4734 34.8473C24.0857 34.9038 24.5355 34.9159 25.1588 35.0632C25.7737 34.7725 26.4113 34.2708 26.9804 33.8827C27.5024 33.5267 28.0357 33.2119 28.5609 32.8686C29.75 32.0915 31.0066 31.4527 32.2643 30.7977C33.6685 30.0665 35.0582 29.4245 36.5928 29.0124C37.6353 28.7326 38.7467 28.615 39.8185 28.4795C40.0072 27.9654 40.3154 27.2026 40.7316 26.8178C41.8205 25.8061 43.6892 25.5201 44.9596 24.8571C49.0027 22.747 53.0518 20.4249 57.7442 20.3577C58.7549 20.3432 61.5109 20.247 61.6017 21.7316C61.6539 22.5847 59.9161 22.6116 59.3693 22.7232C57.7191 23.0289 56.0981 23.9698 54.8221 25.0572C54.7331 25.1324 54.7087 25.1739 54.7082 25.2798C55.3027 25.5042 59.5696 22.8291 60.4029 23.726C60.49 23.8218 60.535 23.9492 60.5279 24.0791C60.5106 24.3486 60.1769 24.5831 59.9676 24.7154C58.8895 25.3959 57.7077 25.8652 56.6235 26.5457C55.1354 27.4798 54.017 28.8527 52.3531 29.5093C51.9094 29.7352 51.4406 29.822 50.978 29.9523C50.5643 30.0685 48.9305 30.2911 48.9265 30.7797C49.3721 31.4626 53.1391 31.0492 53.909 30.8652C53.3595 31.3388 52.9384 31.7831 52.3285 32.2278C51.1361 33.1032 49.6393 33.4405 48.1965 33.5949C47.6738 33.6508 46.481 33.5489 46.1204 33.9659C46.0112 34.4478 46.9188 34.6357 46.9843 35.1059C47.0013 35.229 46.9451 35.3362 46.866 35.4252C46.4122 35.9354 43.8579 35.59 43.1447 35.5421C42.8081 35.5198 42.4705 35.5167 42.1335 35.5332C40.9825 35.5961 40.36 36.2441 41.6982 36.6822C43.5263 37.2806 45.678 37.1714 47.5469 36.8868C47.8729 36.8372 48.1354 36.9572 48.1853 37.3118C48.0853 37.7542 47.2742 38.1465 46.9375 38.3101C46.0494 38.7419 40.2758 41.8116 39.669 40.9994C39.7396 40.5291 41.4684 40.1253 41.7852 39.4996C41.7844 39.4375 41.798 39.3951 41.7562 39.3444C41.6526 39.2205 41.4591 39.1833 41.3075 39.1556C39.4793 38.821 34.0948 39.9732 32.4987 41.0871C32.2049 41.2918 31.8809 41.6142 31.8268 41.9842C31.6113 43.4659 35.6602 43.3092 36.2714 44.2125C36.3363 44.3088 36.352 44.4175 36.3249 44.5296C36.0747 45.5588 32.1901 44.8976 31.3357 44.8691C30.3889 44.8378 28.8277 44.9139 28.0452 45.4672C27.9113 45.5619 27.6616 45.7805 27.6434 45.9552C27.5969 46.4033 28.9048 46.5678 29.1681 46.922C29.2352 47.5052 27.7751 47.6452 27.3666 47.6955C25.8226 47.8812 23.7742 47.6761 22.3662 48.6669C22.2497 48.7518 21.975 49.0475 21.9911 49.2088C22.067 49.9535 23.6956 49.9906 24.1699 50.034C25.0489 50.1193 25.9306 50.1808 26.813 50.2162C25.665 50.8096 23.1043 51.3472 21.7054 51.4191C20.2526 51.4939 17.6948 51.5606 16.4282 50.6299C16.216 50.4737 16.2408 50.1397 16.2317 49.8856C16.4559 49.6622 16.8576 49.4043 17.1291 49.2223C18.0038 48.635 18.6525 47.9532 18.9351 46.9108C19.0212 46.593 19.1062 46.0163 18.9351 45.7191C18.813 45.644 18.8753 45.654 18.7408 45.6718C18.5606 45.8502 18.4269 46.233 18.2922 46.4633C16.6642 49.2476 10.0006 52.2684 7.19076 50.1667C7.22351 51.4031 7.72098 51.8678 8.63731 52.6671C8.84946 52.8522 9.27564 53.0039 9.14851 53.3304C9.10528 53.3588 9.04537 53.4005 8.99225 53.4046C8.27768 53.4593 7.47143 52.9907 6.92734 52.6154C5.97793 51.9602 5.50071 51.2645 5.45177 50.0947C5.43709 49.7431 5.49788 49.3191 5.41382 48.984C5.34812 48.7223 5.15992 48.4049 5.05441 48.1497C4.92478 47.8366 4.82944 47.5012 4.77537 47.1694C4.55869 45.8387 5.01627 45.0853 5.73527 44.0551C4.66298 44.0901 3.76937 44.2928 3.02969 45.1524C2.24937 46.0594 2.1527 47.3832 2.24167 48.5298C2.28269 49.0579 2.3929 49.7732 2.82654 50.1352C3.18143 50.3882 3.86519 50.8513 3.85118 51.3562C3.8338 51.9513 2.88219 52.052 2.95825 52.8852C3.02757 53.6422 3.25657 54.3775 3.81323 54.9224C4.15987 55.2614 4.53638 55.459 4.91824 55.7476C5.42217 56.0911 6.04146 56.7714 6.67732 56.7977C7.02971 56.8115 7.16192 55.8514 7.70196 55.9095C8.46737 55.9924 8.79251 57.0673 9.13735 57.6454C9.35505 58.0095 9.60322 58.3551 9.87848 58.6774C10.7601 59.6997 12.0784 60.5121 13.4502 60.6494C14.1909 60.7232 14.3848 60.2834 14.8387 59.8894C15.0646 59.6952 15.3607 59.6035 15.6558 59.6376C16.6427 59.742 16.628 60.4825 17.147 61.0452C18.6805 62.7068 23.2018 61.8074 24.6431 60.474C23.4837 60.0519 22.2026 60.3017 21.0312 59.8939C20.7896 59.8098 20.2728 59.6219 20.1807 59.361C20.1415 59.2493 20.163 59.1421 20.2209 59.0417C20.248 58.9952 20.3054 58.9454 20.3548 58.9248C20.5284 58.8525 21.7942 59.0979 22.0916 59.1272C23.4932 59.2665 25.2805 59.2504 26.6701 59.0282C29.0521 58.647 31.2737 57.5118 33.3024 56.24C34.3141 55.6056 35.5088 54.7847 36.6419 54.4254C36.929 54.3345 37.473 54.1818 37.7514 54.349C37.8647 54.4168 37.9362 54.5377 37.9612 54.666C38.0353 55.0444 37.6616 55.4632 37.4433 55.7386C36.8997 56.4252 36.348 57.0065 35.6039 57.479C34.1082 58.4288 29.3486 59.8859 28.5966 61.1463C28.5341 61.2516 28.4902 61.3882 28.5363 61.5084C28.5785 61.6176 28.6878 61.6976 28.7886 61.7467C29.3685 62.0281 30.2175 61.83 30.8222 61.722C31.6802 61.5688 32.5438 61.4218 33.3783 61.1643C34.6385 60.7751 35.8425 60.2208 37.0839 59.7792C37.961 59.4677 38.8681 59.24 39.7471 58.9338C40.459 58.6856 41.1408 58.3582 41.8567 58.1198C42.1418 58.0247 42.7218 57.8189 43.0041 57.9781C43.1254 58.0472 43.233 58.1725 43.2653 58.3109C43.3308 58.5916 43.1617 58.8909 42.9996 59.1069C42.4649 59.818 41.6156 60.3804 40.9325 60.9372C40.6438 61.1728 40.3921 61.4512 40.1043 61.686C39.5417 62.1451 38.8017 62.6572 38.1688 63.0126C37.8699 63.1806 36.4072 63.7608 36.3048 63.957C36.2809 64.0053 36.3024 64.0267 36.3205 64.0717C36.4611 64.1561 36.5271 64.1713 36.6933 64.1976C39.0571 64.5738 41.5604 63.3242 43.5153 62.1042C44.3443 61.5811 45.1005 60.9635 45.886 60.3818C46.9866 59.575 48.1721 58.868 49.0917 57.841C49.4901 57.3962 49.8306 56.7474 50.3351 56.4289C50.506 56.3208 50.784 56.3955 50.8239 56.6043C50.9481 57.2549 50.5498 58.3362 50.2659 58.8686C49.3943 60.5037 47.842 61.4616 46.4106 62.5292C45.8127 63.0723 45.393 63.5815 44.6739 63.9705C43.6656 64.5157 42.6659 64.6698 41.5955 64.9891C42.2408 65.1142 42.932 65.331 43.5934 65.3871C45.6364 65.5597 47.4818 65.1221 49.3372 64.2988C51.5756 63.3055 53.3808 61.6349 54.5073 59.4464C54.8892 58.7038 55.0735 57.9477 55.3935 57.2001C55.6993 56.4856 56.2763 55.7124 56.5856 54.9898C56.6346 54.8756 56.636 54.8194 56.5901 54.729C56.1086 54.6307 54.9463 55.6025 54.7104 55.1562C54.8139 54.4019 57.0004 53.5425 57.4763 52.7773C58.1067 51.7225 56.4913 52.179 56.3467 51.961C55.6552 50.8974 59.0674 49.9493 59.3961 49.8182C59.703 49.6975 59.996 49.5424 60.2689 49.3572C61.7394 48.3493 61.3349 47.7786 62.0838 46.3644C62.3769 45.8504 62.7777 45.3952 63.1353 44.9231C63.3201 44.6788 63.724 43.9304 63.9902 43.8932C64.0566 43.9418 64.1242 44.0295 64.1287 44.1114C64.2045 45.5942 63.1912 47.4724 62.441 48.6444C63.0761 48.1545 63.6542 47.5792 64.247 47.039C64.7341 46.5954 65.074 46.2885 65.3341 45.6763C65.2082 45.2513 64.8568 44.7879 64.8631 44.334C64.8687 43.1538 65.8139 42.4119 66.5909 41.6582C67.6805 40.6015 68.6142 39.4722 69.0688 37.9773C69.2886 37.2387 69.3895 36.4681 69.3702 35.6973C69.3487 34.5483 69.0206 33.2229 69.4706 32.1603C69.7539 31.4913 70.3331 30.8375 70.7966 30.2693C72.0873 28.6974 73.0452 27.0385 73.3727 24.9987C73.9857 21.1762 72.0454 17.5884 68.0442 16.9984C66.1708 16.7091 64.2555 17.0925 62.633 18.0799C62.1358 18.3808 61.6205 18.7786 61.1463 19.1255C60.8188 19.3649 60.4618 19.5742 60.1529 19.8046C58.7886 19.6412 56.1575 19.8402 54.8756 20.2813C56.0966 19.4595 57.7219 18.7121 59.0054 17.972C59.287 17.8097 59.952 17.1809 60.2823 16.9354C62.2094 15.5035 63.7443 14.8638 66.1199 14.6711Z" fill="#FEFEFE"/>
<path d="M41.7562 60.971C41.9226 60.9628 42.0057 60.9395 42.1022 61.0834C42.0845 61.5973 40.9167 62.4319 40.4525 62.6281C40.1819 62.6107 39.9703 62.3137 40.0864 62.1065C40.3292 61.6742 41.3299 61.1595 41.7562 60.971Z" fill="#FEFEFE"/>
<path d="M11.9813 54.1017C13.4277 54.0452 14.176 55.9012 15.6513 56.2355C16.0306 56.3213 16.523 56.4798 16.926 56.4469C17.9854 56.3601 19.0574 55.8168 20.145 56.0174C20.3709 56.0662 20.6295 56.1856 20.7433 56.4019C21.0418 56.9704 20.755 57.214 20.3169 57.4857C18.9748 58.1325 17.0613 58.4788 15.6803 57.8073C15.2806 57.6132 14.961 57.2853 14.5954 57.0517C13.6599 56.4515 12.5182 55.9308 11.8362 55.0168C11.5031 54.57 11.5441 54.3535 11.9813 54.1017Z" fill="#FEFEFE"/>
<path d="M47.8393 50.9672C48.0087 51.0122 48.0693 51.0263 48.1384 51.192C48.0792 51.9784 46.6599 53.1739 46.0758 53.625C45.6196 53.9792 45.1766 54.5027 44.7051 54.8257C42.8872 56.0706 40.8348 57.2492 38.7827 58.0344C38.648 57.9971 38.5868 57.9929 38.4881 57.8927L38.497 57.8073C38.666 57.6238 39.7209 56.9157 39.9904 56.7235C40.4607 56.3822 40.9164 56.0197 41.3544 55.6374C42.4479 54.6999 43.3323 53.6191 44.4395 52.7165C44.9799 52.2762 45.6941 52.608 46.2499 52.3118C46.8828 51.9746 47.2217 51.3567 47.8393 50.9672Z" fill="#FEFEFE"/>
<path d="M34.3426 51.997C34.5276 51.9808 34.7684 51.9434 34.9186 52.078C34.9883 52.1413 35.0393 52.2305 35.0369 52.3275C35.0345 52.4484 34.9624 52.5577 34.8851 52.6446C33.5189 54.1685 25.4233 56.218 23.21 56.3907C23.1196 56.3971 23.0282 56.3992 22.9376 56.3952C22.7784 56.3862 22.7304 56.3434 22.6273 56.231C22.601 56.132 22.5897 56.0835 22.643 55.9904C23.0616 55.26 27.8874 53.8607 28.8355 53.6047C29.8502 53.3305 30.8814 53.1306 31.8915 52.8357C32.7198 52.5936 33.5058 52.1994 34.3426 51.997Z" fill="#FEFEFE"/>
<path d="M41.4169 50.4613C41.488 50.4609 41.4866 50.4715 41.5598 50.4995C41.643 50.6334 41.6435 50.5922 41.6334 50.7221C41.4667 50.9143 40.9224 51.0222 40.6646 51.1111C39.6991 51.4442 38.1758 51.8351 37.1933 51.4776C36.9772 51.334 36.7957 51.0667 37.0147 50.857C37.6419 50.2572 38.8524 50.87 39.6199 50.7603C40.2684 50.6681 40.816 50.5303 41.4169 50.4613Z" fill="#FEFEFE"/>
<path d="M51.2704 48.6287C52.7587 48.6979 51.9367 50.1224 50.7927 50.4815C50.7836 50.483 50.775 50.4848 50.7659 50.486L50.7168 50.4927C49.397 50.655 49.9895 48.8131 51.2704 48.6287Z" fill="#FEFEFE"/>
<path d="M60.2198 36.9812C60.3479 37.0241 60.2979 36.9864 60.3761 37.1004C60.4559 37.7684 58.3004 40.5438 57.896 41.2714C57.6186 41.7706 57.4507 42.2766 57.233 42.7892C56.9208 43.5091 56.5161 44.1856 56.0297 44.7994C55.4317 45.5613 54.6287 46.1881 53.9291 46.8591C53.6456 47.1313 52.9379 47.8279 52.5495 47.7405C52.5205 47.3223 53.2608 46.5606 53.4782 46.1395C53.6015 45.9009 53.6292 45.8677 53.7282 45.5909C53.4352 45.1138 53.2479 45.0334 53.6612 44.4711C54.6703 43.1147 55.8333 41.8853 56.9472 40.6171C58.0155 39.4005 59.0996 38.1473 60.2198 36.9812Z" fill="#FEFEFE"/>
<path d="M47.7389 44.1226C48.1891 44.1816 48.2282 44.5666 47.9755 44.8849C47.8175 45.0836 47.6763 45.0838 47.4442 45.1142C46.8026 44.7701 47.0625 44.1815 47.7389 44.1226Z" fill="#FEFEFE"/>
<path d="M70.2966 26.0106C70.3401 26.054 70.4032 26.0932 70.4149 26.1567C70.537 26.829 68.1966 30.5549 67.7607 31.2924C67.4967 31.7388 67.2496 32.2015 67.1334 32.7112C67.0696 32.9896 67.0679 33.2859 67.0485 33.5702C67.0062 34.1991 66.8218 34.7945 66.4882 35.3308C65.9305 36.2269 65.1283 37.0333 64.4613 37.8537C63.5765 38.9425 62.7484 40.0759 61.8673 41.168C61.6314 41.4605 61.1236 42.1877 60.7444 42.2271C60.6343 42.0965 60.5907 42.0079 60.5971 41.8358C60.629 40.9793 62.5192 37.6015 63.1442 36.7676C63.6168 36.1375 64.2528 35.5831 64.6577 34.9148C65.0223 34.3135 64.9146 33.5528 65.2537 32.9338C66.0587 31.465 67.5879 29.7329 68.6134 28.3378C69.0941 27.6838 69.7408 26.5142 70.2966 26.0106Z" fill="#FEFEFE"/>
<path d="M43.0889 23.0402C43.3902 23.0028 43.7413 23.001 43.7385 23.4202C43.5865 23.7249 42.0807 24.0502 41.7138 24.151C41.0011 24.3506 40.2916 24.5662 39.5886 24.7986C33.9867 26.5994 28.4703 28.8038 23.3819 31.8006C22.8672 32.1037 22.3916 32.4797 21.8728 32.7764C21.6927 32.8794 21.4782 32.8699 21.2879 32.8057C21.0343 32.6025 20.2154 31.8743 20.5982 31.5307C21.4466 30.7693 22.5615 30.1198 23.5582 29.5588C29.5839 26.1231 36.2185 23.9087 43.0889 23.0402Z" fill="#FEFEFE"/>
<path d="M34.1618 2.96521C36.9215 2.67133 38.0432 5.81412 35.6999 7.28241C35.7773 7.63236 35.8725 7.97823 35.9834 8.31899C36.6715 10.4011 38.7443 15.4543 40.7807 16.452C41.1855 16.6503 41.5903 16.6607 42.0129 16.5127C44.0822 15.7868 46.5587 11.6039 47.5156 9.6299C47.0005 9.24373 46.52 8.75108 46.4285 8.08515C46.3588 7.54135 46.5081 6.99186 46.8415 6.55838C47.705 5.43573 49.4558 5.21515 50.5516 6.10867C50.9939 6.46784 51.2713 6.99356 51.3218 7.56348C51.4298 8.76318 50.5076 9.97609 49.297 10.0639C49.2245 10.4423 49.1696 10.8159 49.114 11.1971C48.7127 13.9415 48.2757 16.6779 47.6987 19.3908C47.5943 19.8806 47.5355 20.391 47.3549 20.8591C47.2895 21.0275 47.129 21.1395 46.991 21.2459C45.8138 21.3054 44.7986 21.3056 43.5867 21.4213C37.078 22.0603 30.7401 23.8963 24.8887 26.838C23.6194 27.4889 22.3837 28.2275 21.1562 28.9562C20.5643 29.3076 20.0469 29.7002 19.4239 30.0265C18.528 29.9385 18.1994 29.3691 17.6068 28.6976C15.377 26.3141 13.3351 23.6041 11.104 21.2257C10.0553 21.8077 8.63138 21.8923 7.86715 20.7849C6.87552 19.3478 7.75729 17.2978 9.50345 17.0096C11.2011 16.7299 12.5053 17.9101 12.1599 19.6607C12.9594 20.1196 13.8228 20.473 14.6624 20.8501C15.9064 21.409 17.1896 22.0233 18.5087 22.3769C18.9356 22.4913 19.4166 22.591 19.8592 22.5208C20.1693 22.4715 20.462 22.3354 20.6383 22.0644C21.6587 20.4955 20.1414 15.4556 19.7164 13.5986C19.0756 13.5393 18.536 13.4767 17.993 13.0904C17.5243 12.7635 17.2085 12.2569 17.1202 11.6896C16.6141 8.55516 22.5376 8.29756 22.2367 11.4872C22.1868 12.0163 21.9567 12.4344 21.6273 12.8386C23.2758 14.8345 25.8635 16.7344 28.1658 17.8866C29.6751 18.6419 31.2442 19.1499 31.9853 17.1176C33.0799 14.1141 33.5094 10.6884 33.8426 7.51177C32.9391 7.27559 32.1498 6.71486 31.9741 5.74216C31.8675 5.16232 31.9973 4.56316 32.3335 4.08048C32.7695 3.44734 33.4254 3.10603 34.1618 2.96521Z" fill="#FEFEFE"/>
<path d="M66.2248 19.4605C66.5031 19.446 66.7955 19.4701 67.0463 19.6C67.2944 19.7258 67.481 19.947 67.5642 20.2138C67.6485 20.4864 67.619 20.7826 67.4816 21.0323C67.2654 21.4262 66.9555 21.5505 66.5619 21.6731C65.9893 21.7203 65.4181 21.5136 65.2314 20.9131C65.1478 20.6421 65.1778 20.3477 65.314 20.0991C65.5204 19.7223 65.8362 19.5682 66.2248 19.4605Z" fill="#FEFEFE"/>
</svg>